<svg id="레이어_1" data-name="레이어 1" xmlns="http://www.w3.org/2000/svg" xmlns:xlink="http://www.w3.org/1999/xlink" viewBox="0 0 460 225"><defs><style>.cls-1{fill:none;}.cls-2{clip-path:url(#clip-path);}.cls-3{fill:#73151a;}.cls-4{fill:#15308f;}.cls-5{fill:#090a09;}.cls-6{fill:#231815;}.cls-7{fill:#156635;}.cls-8{fill:#8e9228;}</style><clipPath id="clip-path"><rect class="cls-1" x="-192" y="-186" width="841.89" height="595.28"/></clipPath></defs><title>대지 1</title><g class="cls-2"><g class="cls-2"><path class="cls-3" d="M109.92,69.67l32.37-9.38s9.47-31.8-17.14-40.8l-32.26,9s26.39,8.14,17,41.15"/><path class="cls-4" d="M178.42,49.82c12.89-33.35-15-41-15-41L137.61,16s23.56,6.46,16.26,40.93Z"/><path class="cls-5" d="M56,85.06,99.63,72.65s5.63-33.1-18.08-41l-42,12s25,6.64,16.41,41.33"/><path class="cls-6" d="M35.9,124.3a11,11,0,0,1,3.51,8.18H30.53a5.26,5.26,0,0,0-1.32-3.64,4.14,4.14,0,0,0-3.2-1.49,3.94,3.94,0,0,0-2.78,1.09,3.64,3.64,0,0,0-1.15,2.73,4.94,4.94,0,0,0,1.5,3.54A10.9,10.9,0,0,0,28,137.25a22.2,22.2,0,0,1,9.05,5.4,11.49,11.49,0,0,1,3.24,8.22,10.59,10.59,0,0,1-3.54,8q-3.54,3.32-10.11,3.32-6.75,0-10.25-3.24t-3.92-9.16h8.87a6.53,6.53,0,0,0,1.34,4.36,4.5,4.5,0,0,0,3.6,1.57,4,4,0,0,0,3.19-1.27,4.45,4.45,0,0,0,1.09-3,5.48,5.48,0,0,0-1.61-3.81,12.6,12.6,0,0,0-4.59-2.91,26.27,26.27,0,0,1-9-5.45,10.17,10.17,0,0,1-2.93-7.44,10.48,10.48,0,0,1,3.38-7.63q3.38-3.36,10.06-3.36,6.51,0,10,3.42"/><path class="cls-6" d="M71.53,121.42v6.47H57.62v9.71H70.17v6.47H57.62v11.14H72v6.47H55.57a6.6,6.6,0,0,1-4.82-2,7,7,0,0,1-2-5.21V121.42Z"/><path class="cls-6" d="M108,127a26.89,26.89,0,0,1,3.8,14.47,25.22,25.22,0,0,1-4.18,14.69q-4.18,6.07-12,6.07-9,0-12.59-6.29a28.42,28.42,0,0,1-3.63-14.47,29.34,29.34,0,0,1,3.51-14q3.49-6.6,12.71-6.61,8.63,0,12.42,6.11m-17.84,4.14q-1.92,3.78-1.92,10.33,0,7,2,10.65c1.37,2.42,3.14,3.64,5.29,3.64s4-1.2,5.33-3.6,2-6,2-10.69-.67-8.27-2-10.6-3.11-3.51-5.33-3.51-4.14,1.26-5.42,3.78"/><path class="cls-6" d="M141.92,121.42v28.22q0,6.11-3.25,9.3a11.77,11.77,0,0,1-8.62,3.19,11.3,11.3,0,0,1-8-2.77q-3-2.76-3.33-8.73h8.54a7.79,7.79,0,0,0,.72,3.77,2.55,2.55,0,0,0,4.35.08,7.76,7.76,0,0,0,.73-3.91V121.42Z"/><path class="cls-6" d="M160.64,121.42V148c0,2.66.44,4.62,1.32,5.86a4.06,4.06,0,0,0,3.46,1.86,4,4,0,0,0,3.54-1.86c.82-1.24,1.24-3.2,1.24-5.86V121.42h8.87v27.41a13.65,13.65,0,0,1-3.54,9.43q-3.54,4-10.11,4c-4.22,0-7.54-1.22-10-3.64a13,13,0,0,1-3.67-9.66v-27.5Z"/><polygon class="cls-6" points="198.39 121.42 208.63 144.88 208.63 121.42 217.51 121.42 217.51 161.68 208.04 161.68 197.79 139.57 197.79 161.68 188.92 161.68 188.92 121.42 198.39 121.42"/><path class="cls-6" d="M274.84,121.42v6.47H260.92v9.71h12.55v6.47H260.92v11.14h14.43v6.47H258.88a6.64,6.64,0,0,1-4.83-2,7,7,0,0,1-2-5.21V121.42Z"/><polygon class="cls-6" points="293.3 121.42 303.55 144.88 303.55 121.42 312.42 121.42 312.42 161.68 302.95 161.68 292.7 139.57 292.7 161.68 283.83 161.68 283.83 121.42 293.3 121.42"/><path class="cls-6" d="M349.75,124.48a13.25,13.25,0,0,1,4.52,9H345.4a6.49,6.49,0,0,0-2-4.26,7,7,0,0,0-5-1.67q-3.42,0-5.94,3.74T330,141.83q0,7.29,2.56,10.51a7.7,7.7,0,0,0,6.23,3.23,5.45,5.45,0,0,0,5.08-2.72,12.49,12.49,0,0,0,1.66-6.09h-6.91v-6.47h16.64V162h-8.87v-4a7.06,7.06,0,0,1-3.63,2.88,15.52,15.52,0,0,1-6,1.08,14.33,14.33,0,0,1-11-5.17q-4.63-5.16-4.63-15.05,0-9.62,4.82-15.18a15.57,15.57,0,0,1,12.34-5.58q7.59,0,11.52,3.42"/><path class="cls-7" d="M266.54,211.73s180.75-2,180.74-71.24c0,0,4.8-91-261.06-70.82,0,0,214.67-5.67,216.05,71,0,0,7.13,58.15-135.73,71"/><path class="cls-8" d="M33.81,103.81S98.24,72.47,186.22,72.48c0,0,209.49-2.81,209.46,67.59,0,0,6.62,69.65-188.44,69.65,0,0-80.75.88-110.76-11,0,0,11.91,6.18,111.21,6.18,0,0,169-1.68,169-63.77,0,0,6.05-62-190.48-62,0,0-86.65-2.65-152.41,24.71"/></g></g></svg>